<svg xmlns="http://www.w3.org/2000/svg" width="95" height="95" viewBox="0 0 95 95"><path d="M83.5876,16.4124A47.5,47.5,0,0,0,16.4124,83.5876,47.5,47.5,0,0,0,83.5876,16.4124Zm-2.0357,65.14A44.6211,44.6211,0,1,1,18.4481,18.4481,44.6211,44.6211,0,1,1,81.5519,81.5519Z" transform="translate(-2.5 -2.5)"/><path d="M79.2448,20.7552a41.3585,41.3585,0,0,0-58.49,58.49,41.3585,41.3585,0,1,0,58.49-58.49ZM51.4394,88.45V85.3131a1.4394,1.4394,0,1,0-2.8788,0V88.45A38.5265,38.5265,0,0,1,11.55,51.4394h3.137a1.4394,1.4394,0,1,0,0-2.8788H11.55A38.5265,38.5265,0,0,1,48.5606,11.55v3.137a1.4394,1.4394,0,1,0,2.8788,0V11.55A38.5265,38.5265,0,0,1,88.45,48.5606h-3.137a1.4394,1.4394,0,0,0,0,2.8788H88.45A38.5267,38.5267,0,0,1,51.4394,88.45Z" transform="translate(-2.5 -2.5)"/><path d="M76.101,48.5606H61.2444l9.9713-17.8172a1.4394,1.4394,0,0,0-1.9591-1.9589L51.4394,38.7574V23.899a1.4394,1.4394,0,1,0-2.8788,0V40.3685l-2.7437,1.5358c-.1892.0982-.3756.2009-.5567.3116l-.0384.0215a1.4579,1.4579,0,0,0-.16.106q-.2061.1335-.4047.2773l-5.9215-5.9215A1.4393,1.4393,0,0,0,36.7,38.7347l5.9215,5.9215a9.1435,9.1435,0,0,0-.7115,1.1506c-.0076.0126-.0161.0243-.0234.0374l-1.52,2.7164H23.899a1.4394,1.4394,0,0,0,0,2.8788H38.7549L28.7843,69.2566a1.4393,1.4393,0,0,0,1.9587,1.9591L48.5606,61.25V76.101a1.4394,1.4394,0,0,0,2.8788,0V59.64l2.9481-1.649c.0215-.0121.0414-.0259.0619-.0389a9.1332,9.1332,0,0,0,.894-.5731l5.9215,5.9215A1.4393,1.4393,0,0,0,63.3,61.2651l-5.9215-5.9215a9.1416,9.1416,0,0,0,.7249-1.1766c.0061-.01.0138-.02.02-.03l1.51-2.6972H76.101a1.4394,1.4394,0,1,0,0-2.8788ZM46.7191,44.6984l.485-.2715a6.2479,6.2479,0,1,1-.485.2715Zm11.9675,2.5378a9.1555,9.1555,0,0,0-5.9209-5.9221l13.448-7.5272ZM41.3132,52.7633a9.1559,9.1559,0,0,0,5.9295,5.9257l-13.458,7.5272Z" transform="translate(-2.5 -2.5)"/><path d="M50,52.9747A2.9747,2.9747,0,1,0,47.0253,50,2.978,2.978,0,0,0,50,52.9747Zm0-3.0707a.096.096,0,1,1-.096.096A.096.096,0,0,1,50,49.904Z" transform="translate(-2.5 -2.5)"/></svg>