<svg xmlns="http://www.w3.org/2000/svg" width="1527.4624" height="60" viewBox="0 0 1527.4624 293.8995"><path d="M465.3257,203.2725c-1.6983-5.0948-2.83-8.2071-2.83-24.3389v-31.13c0-18.3955-6.2266-25.1875-20.376-25.1875H431.3647v80.6563h-31.13V5.1689h46.9785c32.2627,0,46.13,15,46.13,45.564V66.2983c0,20.376-6.51,33.6773-20.377,40.1866,15.5654,6.5092,20.66,21.5083,20.66,42.1674v30.5645c0,9.623.2822,16.6973,3.3955,24.0557ZM431.3647,33.47V94.3154h12.17c11.6025,0,18.6777-5.0937,18.6777-20.9424V53.8457c0-14.15-4.81-20.376-15.8477-20.376Z" transform="translate(-7.3027 -2.9053)" style="fill:#fd0"/><path d="M545.1294,88.6558h42.7334v28.3H545.1294v58.0166H598.9v28.3H513.9985V5.1689H598.9V33.47h-53.77Z" transform="translate(-7.3027 -2.9053)" style="fill:#fd0"/><path d="M660.0259,2.9053c30.2812,0,45.8467,18.1123,45.8467,49.8086V58.94H676.44v-8.207c0-14.15-5.66-19.5273-15.5654-19.5273S645.31,36.5825,645.31,50.7329c0,40.7525,60.8457,48.3941,60.8457,104.9946,0,31.6963-15.8487,49.81-46.4131,49.81s-46.4121-18.1133-46.4121-49.81V143.5586h29.4316v14.15c0,14.15,6.2266,19.2441,16.1318,19.2441s16.1309-5.0937,16.1309-19.2441c0-40.7529-60.8457-48.3941-60.8457-104.9951C614.1792,21.0176,629.7446,2.9053,660.0259,2.9053Z" transform="translate(-7.3027 -2.9053)" style="fill:#fd0"/><path d="M723.981,5.1689h31.1308V203.2725H723.981Z" transform="translate(-7.3027 -2.9053)" style="fill:#fd0"/><path d="M868.0259,129.4082v26.3193c0,31.6963-15.8487,49.81-46.4131,49.81s-46.4121-18.1133-46.4121-49.81V52.7139c0-31.6963,15.8476-49.8086,46.4121-49.8086s46.4131,18.1123,46.4131,49.8086V71.958H838.5933V50.7329c0-14.15-6.2256-19.5273-16.1309-19.5273s-16.1318,5.3769-16.1318,19.5273V157.709c0,14.15,6.2265,19.2441,16.1318,19.2441s16.1309-5.0937,16.1309-19.2441V129.4082Z" transform="translate(-7.3027 -2.9053)" style="fill:#fd0"/><path d="M987.7319,203.2725h-31.414l-5.377-35.9414h-38.206l-5.377,35.9414h-28.583L910.4712,5.1689h45.5635Zm-71.0341-62.8272h29.998L931.6968,40.2617Z" transform="translate(-7.3027 -2.9053)" style="fill:#fd0"/><path d="M1077.1577,93.1836h40.1865v28.3h-40.1865v81.7886h-31.1308V5.1689h82.3544V33.47h-51.2236Z" transform="translate(-7.3027 -2.9053)" style="fill:#fd0"/><path d="M1240.4526,203.2725h-31.414l-5.377-35.9414h-38.206l-5.377,35.9414h-28.583L1163.1919,5.1689h45.5635Zm-71.0341-62.8272h29.998l-14.999-100.1836Z" transform="translate(-7.3027 -2.9053)" style="fill:#fd0"/><path d="M1254.8823,5.1689h31.1309V174.9727h51.2236v28.3h-82.3545Z" transform="translate(-7.3027 -2.9053)" style="fill:#fd0"/><path d="M1350.8169,5.1689h31.1309V174.9727h51.2236v28.3h-82.3545Z" transform="translate(-7.3027 -2.9053)" style="fill:#fd0"/><path d="M1488.6353,2.9053c30.2812,0,45.8466,18.1123,45.8466,49.8086V58.94h-29.4326v-8.207c0-14.15-5.66-19.5273-15.5654-19.5273s-15.5654,5.3769-15.5654,19.5273c0,40.7525,60.8466,48.3941,60.8466,104.9946,0,31.6963-15.8486,49.81-46.413,49.81s-46.4131-18.1133-46.4131-49.81V143.5586h29.4326v14.15c0,14.15,6.2265,19.2441,16.1318,19.2441s16.1309-5.0937,16.1309-19.2441c0-40.7529-60.8457-48.3941-60.8457-104.9951C1442.7886,21.0176,1458.354,2.9053,1488.6353,2.9053Z" transform="translate(-7.3027 -2.9053)" style="fill:#fd0"/><path d="M418.9369,229.2685c10.0785,0,15.2591,6.0283,15.2591,16.5783v2.0721H424.4v-2.7315c0-4.7095-1.8837-6.5-5.1806-6.5s-5.18,1.79-5.18,6.5c0,13.5633,20.2509,16.1069,20.2509,34.9451,0,10.5491-5.2745,16.5774-15.4474,16.5774s-15.4475-6.0283-15.4475-16.5774v-4.05h9.7958v4.71c0,4.7095,2.0725,6.4049,5.3689,6.4049s5.3695-1.6954,5.3695-6.4049c0-13.5642-20.2515-16.1068-20.2515-34.9451C403.6777,235.2968,408.8584,229.2685,418.9369,229.2685Z" transform="translate(-7.3027 -2.9053)" style="fill:#fd0"/><path d="M504.4618,271.3728v8.76c0,10.5491-5.275,16.5774-15.4475,16.5774s-15.4479-6.0283-15.4479-16.5774V245.8468c0-10.55,5.275-16.5783,15.4479-16.5783s15.4475,6.0283,15.4475,16.5783v6.405h-9.7963v-7.0644c0-4.7095-2.072-6.5-5.3689-6.5s-5.369,1.79-5.369,6.5v35.6045c0,4.7095,2.0726,6.4049,5.369,6.4049s5.3689-1.6954,5.3689-6.4049v-9.4191Z" transform="translate(-7.3027 -2.9053)" style="fill:#fd0"/><path d="M544.1145,245.8468c0-10.55,5.5577-16.5783,15.73-16.5783s15.73,6.0283,15.73,16.5783v34.2857c0,10.5491-5.5573,16.5774-15.73,16.5774s-15.73-6.0283-15.73-16.5774Zm10.3612,34.9451c0,4.7095,2.0725,6.4989,5.3689,6.4989s5.369-1.7894,5.369-6.4989V245.1874c0-4.7095-2.0721-6.5-5.369-6.5s-5.3689,1.79-5.3689,6.5Z" transform="translate(-7.3027 -2.9053)" style="fill:#fd0"/><path d="M626.3435,230.0218v50.864c0,4.71,2.072,6.405,5.3689,6.405s5.3689-1.6954,5.3689-6.405v-50.864h9.7958v50.2046c0,10.55-5.2745,16.5784-15.4474,16.5784s-15.4475-6.0283-15.4475-16.5784V230.0218Z" transform="translate(-7.3027 -2.9053)" style="fill:#fd0"/><path d="M685.1186,230.0218h32.0248v9.4191H706.3116v56.5157H695.95V239.4409H685.1186Z" transform="translate(-7.3027 -2.9053)" style="fill:#fd0"/><path d="M826.31,295.9566c-.5654-1.6954-.9421-2.7314-.9421-8.1V277.495c0-6.1222-2.072-8.3831-6.7816-8.3831h-3.58v26.8447H804.645V230.0218h15.6362c10.7379,0,15.3535,4.9923,15.3535,15.1656v5.18c0,6.7816-2.1669,11.2094-6.7816,13.3754,5.18,2.1669,6.8756,7.1582,6.8756,14.0347V287.95c0,3.203.0939,5.5578,1.13,8.0065Zm-11.3033-56.5157v20.2519h4.05c3.8623,0,6.2171-1.6954,6.2171-6.97v-6.4989c0-4.71-1.6015-6.7826-5.275-6.7826Z" transform="translate(-7.3027 -2.9053)" style="fill:#fd0"/><path d="M887.0623,257.8086h14.2236v9.4191H887.0623v19.31h17.8971v9.4191H876.7011V230.0218h28.2583v9.4191H887.0623Z" transform="translate(-7.3027 -2.9053)" style="fill:#fd0"/><path d="M959.495,229.2685c10.0785,0,15.2587,6.0283,15.2587,16.5783v2.0721h-9.7958v-2.7315c0-4.7095-1.8833-6.5-5.18-6.5s-5.1811,1.79-5.1811,6.5c0,13.5633,20.2518,16.1069,20.2518,34.9451,0,10.5491-5.275,16.5774-15.4474,16.5774s-15.4484-6.0283-15.4484-16.5774v-4.05h9.7967v4.71c0,4.7095,2.0721,6.4049,5.369,6.4049s5.3689-1.6954,5.3689-6.4049c0-13.5642-20.2519-16.1068-20.2519-34.9451C944.2354,235.2968,949.4165,229.2685,959.495,229.2685Z" transform="translate(-7.3027 -2.9053)" style="fill:#fd0"/><path d="M1025.334,257.8086h14.2236v9.4191H1025.334v19.31h17.8971v9.4191h-28.2583V230.0218h28.2583v9.4191H1025.334Z" transform="translate(-7.3027 -2.9053)" style="fill:#fd0"/><path d="M1105.4905,295.9566c-.5655-1.6954-.9422-2.7314-.9422-8.1V277.495c0-6.1222-2.072-8.3831-6.7816-8.3831h-3.58v26.8447h-10.3612V230.0218h15.6362c10.7379,0,15.3536,4.9923,15.3536,15.1656v5.18c0,6.7816-2.167,11.2094-6.7817,13.3754,5.18,2.1669,6.8756,7.1582,6.8756,14.0347V287.95c0,3.203.0939,5.5578,1.13,8.0065Zm-11.3034-56.5157v20.2519h4.05c3.8623,0,6.2171-1.6954,6.2171-6.97v-6.4989c0-4.71-1.6015-6.7826-5.275-6.7826Z" transform="translate(-7.3027 -2.9053)" style="fill:#fd0"/><path d="M1171.3294,283.806l7.9125-53.7842h9.5131l-10.1724,65.9348h-15.4484l-10.1725-65.9348h10.4552Z" transform="translate(-7.3027 -2.9053)" style="fill:#fd0"/><path d="M1258.9269,295.9566h-10.4552l-1.7893-11.9618h-12.716l-1.7893,11.9618h-9.514l10.55-65.9348h15.1647Zm-23.6418-20.91h9.9846l-4.9923-33.3446Z" transform="translate(-7.3027 -2.9053)" style="fill:#fd0"/><path d="M1294.9079,230.0218h32.0258v9.4191h-10.8318v56.5157h-10.3612V239.4409h-10.8328Z" transform="translate(-7.3027 -2.9053)" style="fill:#fd0"/><path d="M1365.6443,230.0218h10.3612v65.9348h-10.3612Z" transform="translate(-7.3027 -2.9053)" style="fill:#fd0"/><path d="M1416.8831,245.8468c0-10.55,5.5567-16.5783,15.73-16.5783s15.73,6.0283,15.73,16.5783v34.2857c0,10.5491-5.5578,16.5774-15.73,16.5774s-15.73-6.0283-15.73-16.5774Zm10.3612,34.9451c0,4.7095,2.072,6.4989,5.3689,6.4989s5.369-1.7894,5.369-6.4989V245.1874c0-4.7095-2.0721-6.5-5.369-6.5s-5.3689,1.79-5.3689,6.5Z" transform="translate(-7.3027 -2.9053)" style="fill:#fd0"/><path d="M1498.4522,248.2016v47.755h-9.3252V230.0218h12.9987l10.644,39.4667V230.0218H1522v65.9348h-10.644Z" transform="translate(-7.3027 -2.9053)" style="fill:#fd0"/><path d="M283.0158,140.8642c-.4378-7.3179-9.9868-39.0034-40.4309-39.0034-18.9968,0-35.0516,4.94-47.5893,16.1735-7.4764-51.9736-37.1333-88.0626-49.7234-111.4215-12.6236,23.3716-42.3091,59.486-49.7886,111.5047-12.5467-11.2946-28.6285-16.2567-47.663-16.2567-30.4828,0-39.9931,31.6855-40.4622,39.0034-.9839,16.1025,10.9771,51.2225,43.9587,58.0082C49.6028,177.2293,63.2907,162.35,80.763,162.35c17.4839,0,21.4914,12.139,26.4753,32.1743.5412,2.1686.9621,4.211,1.3369,6.2057a10.2185,10.2185,0,0,0,.2247,19.7925c-1.4137,5.18-4.3223,8.8106-9.0454,10.579-10.4857,3.8929-26.1726-10.4539-23.47-17.0742-10.4878,4.8832-18.8441,15.3185-17.997,27.3006.882,12.0288,11.3518,28.2973,25.4856,26.3359,9.7128-1.35,22.35-2.4267,31.1337-13.36,5.0024,13.9435,14.1316,31.3357,30.3651,39.0829,16.1719-7.7281,25.2932-25.0594,30.2972-38.9854,8.78,10.8351,21.3631,11.917,31.0442,13.2623,14.1321,1.9614,24.6051-14.3071,25.4866-26.3359.8519-11.9821-7.5044-22.4174-18.0044-27.3006,2.7172,6.62-12.9862,20.9671-23.4512,17.0742-4.6621-1.7472-7.5569-5.3163-8.9961-10.393a10.2059,10.2059,0,0,0,.2067-20.1693c.37-1.9385.7745-3.9131,1.3009-6.0149C188.14,174.4893,192.14,162.35,209.6314,162.35c17.45,0,31.1257,14.879,29.4379,36.5221C272.0382,192.0867,284.0341,156.9667,283.0158,140.8642Z" transform="translate(-7.3027 -2.9053)" style="fill:#fd0"/></svg>